<?xml version="1.0" standalone="no"?>
<!DOCTYPE svg PUBLIC "-//W3C//DTD SVG 20010904//EN"
 "http://www.w3.org/TR/2001/REC-SVG-20010904/DTD/svg10.dtd">
<svg version="1.0" xmlns="http://www.w3.org/2000/svg"
 width="787.000000pt" height="679.000000pt" viewBox="0 0 787.000000 679.000000"
 preserveAspectRatio="xMidYMid meet">

<g transform="translate(0.000000,679.000000) scale(0.100000,-0.100000)"
fill="#000000" stroke="none">
<path d="M0 3395 c0 -2257 3 -3395 10 -3395 7 0 10 1138 10 3395 0 2257 -3
3395 -10 3395 -7 0 -10 -1138 -10 -3395z"/>
<path d="M2493 4988 c-6 -7 -54 -78 -108 -158 -111 -165 -156 -221 -269 -338
-134 -138 -74 -127 -688 -130 -459 -2 -532 -1 -564 13 -33 13 -36 17 -23 30
19 19 118 44 204 51 91 8 227 -10 311 -42 57 -21 69 -23 81 -11 20 19 4 29
-87 55 -183 52 -357 54 -505 6 l-85 -28 -41 40 c-22 21 -50 56 -61 77 -12 20
-27 37 -32 37 -13 0 -376 -453 -376 -469 0 -7 22 -11 53 -11 30 0 56 -3 60 -6
3 -4 -12 -41 -34 -84 -22 -43 -49 -116 -61 -162 -18 -73 -20 -101 -15 -233 9
-242 63 -415 189 -605 103 -154 268 -291 421 -348 69 -26 215 -30 287 -8 78
24 177 77 237 127 31 27 60 49 64 49 18 0 164 -287 229 -450 87 -219 90 -236
90 -559 l0 -287 33 -85 c37 -95 61 -114 73 -54 3 19 -1 255 -10 523 -18 530
-20 836 -7 950 l9 74 100 102 100 101 1 475 c0 261 3 495 7 520 3 25 17 82 30
127 21 70 34 95 85 155 64 76 242 283 342 397 38 44 57 74 57 91 0 44 -75 96
-97 68z m-973 -896 l245 -7 3 -817 c1 -570 -1 -818 -8 -818 -6 0 -16 14 -22
31 -18 53 -107 229 -164 326 -30 51 -54 99 -54 108 0 9 11 31 24 48 153 204
139 512 -35 771 -64 96 -205 234 -277 270 -77 40 -162 41 -244 4 -127 -59
-258 -169 -335 -283 -69 -102 -77 -124 -77 -201 0 -60 4 -80 32 -135 49 -98
201 -272 269 -308 30 -15 88 -14 121 3 63 33 152 154 152 205 0 14 -12 26 -36
36 -46 19 -189 165 -232 238 -19 31 -36 74 -39 96 -7 54 28 91 85 91 80 0 275
-157 371 -299 79 -116 95 -163 95 -276 0 -116 -14 -151 -86 -201 -146 -103
-314 -103 -496 -2 -193 107 -337 249 -420 413 -88 175 -95 442 -15 604 62 128
14 116 488 113 226 -2 520 -6 655 -10z"/>
<path d="M7381 4796 c-113 -172 -199 -281 -297 -380 -117 -119 -121 -120 -412
-124 -239 -4 -244 -3 -249 17 -4 14 -21 26 -59 38 -31 10 -54 23 -54 31 0 7
24 39 53 70 80 86 119 134 113 139 -2 3 -32 -5 -65 -18 -75 -27 -149 -23 -261
14 -179 59 -313 139 -427 254 -46 46 -87 83 -91 83 -5 0 -42 -35 -83 -77 -135
-141 -415 -437 -458 -485 -34 -38 -50 -48 -75 -48 -17 0 -36 -4 -42 -8 -18
-11 -164 -175 -164 -183 0 -4 17 -9 38 -11 l37 -3 0 -995 1 -995 22 -42 c28
-53 40 -60 63 -36 18 18 18 23 3 163 -8 80 -16 239 -17 354 l-2 209 93 86 92
86 0 677 0 677 162 178 c89 98 170 182 180 187 13 7 28 0 60 -26 65 -54 204
-141 291 -184 42 -21 77 -41 77 -44 0 -3 -32 -16 -70 -29 l-71 -22 -34 21
c-19 12 -55 49 -81 83 -25 34 -51 62 -58 62 -13 0 -374 -445 -375 -462 -1 -9
19 -13 67 -13 38 0 71 -3 74 -6 3 -3 -11 -33 -31 -67 -100 -166 -130 -336 -97
-557 36 -232 114 -414 243 -567 71 -84 118 -126 211 -190 95 -67 166 -93 264
-100 103 -8 185 10 288 60 70 34 102 58 180 137 113 113 169 213 197 349 14
73 15 95 4 175 -30 212 -122 382 -293 541 -125 116 -202 143 -314 110 -140
-41 -327 -195 -414 -344 -94 -159 -62 -276 139 -501 104 -116 170 -136 257
-77 53 36 121 126 130 172 5 28 2 32 -35 48 -49 22 -199 178 -241 252 -82 143
8 226 151 139 76 -46 209 -171 263 -248 124 -174 149 -334 70 -442 -28 -39
-103 -87 -168 -109 -73 -25 -212 -17 -291 16 -181 75 -386 246 -473 394 -83
142 -119 305 -103 460 13 115 31 175 78 253 70 115 -19 103 705 96 348 -3 639
-7 646 -10 9 -3 12 -266 12 -1271 l1 -1268 37 -89 c21 -49 43 -91 49 -93 5 -2
16 10 23 26 9 24 9 79 -1 268 -7 132 -13 470 -13 760 l-1 523 103 102 102 103
0 454 c0 484 8 591 52 709 20 55 89 141 356 446 67 77 122 148 122 159 0 25
-53 77 -79 77 -16 0 -43 -34 -110 -134z m-1201 -450 c111 -14 170 -30 170 -48
0 -12 -453 -10 -487 3 -27 10 -27 11 -8 22 27 15 121 35 170 36 22 0 92 -6
155 -13z"/>
<path d="M4880 4478 c-86 -90 -169 -167 -187 -174 -43 -19 -403 -20 -385 -2 6
6 80 16 174 23 l163 12 -144 2 c-92 1 -181 -5 -250 -16 -58 -9 -120 -16 -137
-16 -48 2 -92 29 -158 96 l-59 60 -61 -64 c-139 -146 -261 -283 -261 -293 0
-7 30 -12 78 -14 42 -2 77 -5 77 -7 0 -3 -21 -33 -46 -67 -134 -180 -181 -427
-109 -573 30 -63 94 -124 167 -161 29 -14 55 -28 57 -30 2 -2 -15 -24 -38 -49
-38 -42 -41 -48 -41 -104 0 -54 4 -64 43 -117 55 -75 110 -104 195 -104 34 0
82 7 107 16 45 15 47 15 90 -10 30 -18 60 -50 94 -102 58 -86 64 -126 34 -222
l-18 -55 44 -39 c25 -21 51 -37 60 -36 26 5 36 63 21 121 -34 135 -108 275
-209 394 l-40 48 -93 13 c-120 16 -194 51 -225 107 -28 49 -28 50 -2 76 14 14
27 18 42 13 37 -11 126 -83 142 -114 11 -21 23 -30 40 -30 39 0 98 29 123 60
28 35 18 57 -40 90 -21 12 -38 25 -38 29 0 4 19 13 43 20 125 38 239 135 271
234 22 66 31 161 22 222 l-8 47 -36 -6 c-84 -15 -230 -18 -285 -7 -80 17 -120
47 -131 99 -7 35 -6 46 9 62 41 46 198 11 230 -51 13 -25 18 -27 42 -18 36 13
54 27 81 66 41 58 22 88 -80 132 -112 48 -203 47 -272 -2 -56 -40 -85 -155
-71 -284 6 -60 11 -72 44 -104 51 -51 123 -66 246 -50 50 7 107 17 128 23 53
16 63 3 39 -53 -43 -99 -119 -134 -292 -134 -86 1 -116 5 -164 24 -80 32 -147
99 -176 176 -44 119 -10 319 71 418 l30 37 341 0 341 0 -6 -712 c-3 -423 -10
-760 -17 -829 -13 -131 -11 -139 54 -214 32 -37 36 -39 51 -24 15 15 16 30 1
195 -20 240 -30 524 -21 621 l8 78 88 79 88 79 3 447 3 447 90 103 c49 56 118
128 152 159 66 58 79 92 45 110 -14 7 -44 -18 -172 -151z"/>
<path d="M3550 4554 c-106 -123 -236 -242 -278 -254 -24 -8 -128 -10 -302 -8
-264 3 -265 3 -315 29 -27 15 -76 53 -108 85 l-58 59 -46 -50 c-25 -27 -97
-107 -161 -176 -63 -70 -115 -131 -116 -135 0 -5 211 -11 469 -14 l470 -5 3
-442 c1 -244 -1 -443 -6 -443 -4 0 -23 28 -41 62 -19 34 -63 99 -98 146 -35
46 -63 86 -63 90 0 4 39 46 87 94 l88 88 -25 46 c-50 95 -186 216 -280 249
-23 8 -73 15 -109 15 -57 0 -79 -6 -147 -39 -150 -73 -263 -176 -316 -289 -28
-57 -30 -69 -26 -150 4 -108 22 -146 103 -229 88 -88 150 -101 246 -52 35 17
95 81 134 142 21 32 22 30 -33 46 -30 8 -61 31 -110 79 -109 110 -142 207 -86
251 74 58 189 -4 327 -173 157 -193 283 -405 334 -560 15 -45 15 -77 4 -325
-7 -152 -14 -277 -16 -279 -2 -2 -27 -4 -57 -5 -178 -7 -408 -246 -408 -425 0
-53 37 -128 92 -188 50 -55 182 -144 211 -144 45 0 148 60 208 120 33 33 58
64 55 69 -4 5 -30 17 -59 27 -81 27 -188 80 -231 115 -42 36 -75 98 -76 143 0
21 12 41 44 72 49 49 87 56 152 29 72 -30 219 -191 366 -400 81 -115 298 -323
532 -510 105 -83 105 -84 233 -91 65 -3 134 -7 153 -9 19 -2 40 -4 45 -4 6 -1
42 -24 80 -52 123 -90 331 -202 464 -250 349 -127 517 -168 906 -218 238 -30
376 -36 413 -17 52 27 142 152 142 198 0 23 -5 26 -55 31 -46 5 -66 1 -111
-19 -108 -48 -182 -58 -399 -58 -244 1 -430 27 -758 105 -126 30 -377 148
-535 251 -15 10 -36 22 -47 27 -11 6 -45 28 -75 51 -30 22 -76 55 -103 73
-212 150 -553 486 -747 737 -101 131 -143 174 -232 237 -56 39 -78 61 -78 76
0 12 -7 103 -15 202 -8 99 -15 276 -15 394 l0 213 38 37 c21 20 62 58 92 85
l55 49 5 452 5 452 89 99 c93 103 155 164 194 191 24 17 29 42 10 61 -23 23
-43 11 -108 -64z"/>
</g>
</svg>
